<svg width="278" height="278" viewBox="0 0 278 278" fill="none" xmlns="http://www.w3.org/2000/svg">
<rect width="278" height="278" rx="37" fill="#10B981"/>
<g clip-path="url(#clip0_548_7)">
<path d="M54.4829 60.1175C54.4829 45.9461 66.0047 34.4243 80.1761 34.4243H144.409C158.58 34.4243 170.102 45.9461 170.102 60.1175V137.197H173.314C192.825 137.197 208.642 153.014 208.642 172.525V185.372C208.642 190.711 212.938 195.007 218.277 195.007C223.616 195.007 227.912 190.711 227.912 185.372V123.548C216.832 120.697 208.642 110.621 208.642 98.6573V72.9641L195.795 60.1175C192.263 56.5847 192.263 50.8037 195.795 47.2709C199.328 43.7381 205.109 43.7381 208.642 47.2709L239.675 78.3035C244.492 83.1209 247.182 89.6647 247.182 96.4894V101.869V111.504V124.35V185.372C247.182 201.35 234.255 214.277 218.277 214.277C202.299 214.277 189.372 201.35 189.372 185.372V172.525C189.372 163.653 182.186 156.467 173.314 156.467H170.102V214.277C177.208 214.277 182.949 220.017 182.949 227.123C182.949 234.229 177.208 239.97 170.102 239.97H54.4829C47.3772 239.97 41.6364 234.229 41.6364 227.123C41.6364 220.017 47.3772 214.277 54.4829 214.277V60.1175ZM80.1761 66.5408V105.081C80.1761 108.613 83.0666 111.504 86.5994 111.504H137.986C141.519 111.504 144.409 108.613 144.409 105.081V66.5408C144.409 63.008 141.519 60.1175 137.986 60.1175H86.5994C83.0666 60.1175 80.1761 63.008 80.1761 66.5408Z" fill="white"/>
</g>
<defs>
<clipPath id="clip0_548_7">
<rect width="205.545" height="205.545" fill="white" transform="translate(41.6364 34.4243)"/>
</clipPath>
</defs>
</svg>
